P1
8 8
10000000
11000000
10100000
11110000
10001000
11001100
10101010
11111111